<?xml version="1.0" standalone="no"?>
<!DOCTYPE svg PUBLIC "-//W3C//DTD SVG 20010904//EN"
 "http://www.w3.org/TR/2001/REC-SVG-20010904/DTD/svg10.dtd">
<svg version="1.0" xmlns="http://www.w3.org/2000/svg"
 width="512.000000pt" height="512.000000pt" viewBox="0 0 512.000000 512.000000"
 preserveAspectRatio="xMidYMid meet">

<g transform="translate(0.000000,512.000000) scale(0.100000,-0.100000)"
fill="#000000" stroke="none">
<path d="M1394 4546 c-107 -20 -179 -44 -267 -87 -265 -131 -456 -362 -536
-649 l-26 -95 0 -1155 0 -1155 26 -95 c43 -155 125 -304 238 -432 103 -117
309 -239 480 -287 l96 -26 1155 0 1155 0 97 27 c345 95 621 371 716 716 l27
97 0 1155 0 1155 -26 96 c-48 171 -170 377 -287 480 -128 113 -277 195 -432
238 l-95 26 -1125 2 c-884 1 -1140 -1 -1196 -11z m2386 -174 c316 -97 537
-334 601 -647 18 -84 19 -156 19 -1165 0 -1009 -1 -1081 -19 -1165 -35 -172
-105 -299 -231 -425 -126 -126 -253 -196 -425 -231 -84 -18 -156 -19 -1165
-19 -1011 0 -1080 1 -1166 19 -315 65 -555 290 -646 606 l-23 80 0 1135 0
1135 22 77 c43 145 100 249 196 355 124 135 300 232 479 262 30 5 543 8 1168
7 l1115 -1 75 -23z"/>
<path d="M3580 4064 c-227 -82 -293 -362 -125 -529 65 -66 125 -90 225 -90
100 0 160 24 225 90 66 65 90 125 90 225 0 100 -24 160 -90 225 -82 82 -222
116 -325 79z m163 -158 c103 -43 128 -177 48 -257 -112 -113 -296 -12 -267
146 18 94 128 150 219 111z"/>
<path d="M2393 3506 c-374 -72 -663 -341 -765 -714 -31 -111 -31 -353 0 -464
95 -347 353 -605 698 -700 114 -31 354 -31 468 0 287 79 524 280 644 548 60
133 75 211 75 384 0 128 -3 169 -21 234 -95 345 -358 607 -700 697 -100 27
-299 34 -399 15z m357 -169 c207 -57 368 -172 481 -345 88 -134 124 -258 124
-432 0 -226 -75 -408 -231 -564 -156 -156 -338 -231 -564 -231 -174 0 -298 36
-432 124 -315 207 -444 588 -319 943 93 261 317 453 601 514 80 17 262 12 340
-9z"/>
</g>
</svg>
