<?xml version="1.0" standalone="no"?>
<!DOCTYPE svg PUBLIC "-//W3C//DTD SVG 20010904//EN"
 "http://www.w3.org/TR/2001/REC-SVG-20010904/DTD/svg10.dtd">
<svg version="1.0" xmlns="http://www.w3.org/2000/svg"
 width="500.000000pt" height="255.000000pt" viewBox="0 0 500.000000 255.000000"
 preserveAspectRatio="xMidYMid meet">

<g transform="translate(0.000000,255.000000) scale(0.100000,-0.100000)"
fill="#000000" stroke="none">
<path d="M3146 2370 c-16 -5 -38 -18 -50 -28 -11 -11 -50 -39 -86 -63 -36 -23
-105 -73 -155 -109 -81 -60 -94 -66 -130 -63 -64 6 -124 -30 -155 -94 -25 -51
-26 -52 -70 -53 -37 0 -63 -10 -140 -57 -65 -40 -100 -68 -110 -88 -10 -21
-34 -40 -77 -62 -35 -17 -63 -27 -63 -22 0 34 -141 5 -161 -32 -6 -11 -9 -34
-7 -52 3 -26 -2 -34 -30 -50 -25 -15 -36 -17 -45 -8 -14 14 -96 15 -131 1 -14
-5 -28 -20 -31 -33 -6 -21 -18 -27 -88 -43 -45 -10 -86 -17 -92 -15 -26 8 -81
1 -116 -14 -32 -15 -51 -38 -54 -66 0 -3 -12 -20 -27 -38 -27 -31 -36 -34
-270 -85 -134 -29 -351 -75 -483 -102 -228 -47 -240 -50 -272 -82 -51 -51 -90
-127 -114 -226 -14 -61 -29 -98 -44 -113 -24 -23 -45 -112 -45 -188 0 -55 34
-118 88 -165 60 -52 264 -153 362 -179 250 -67 585 -104 1041 -116 109 -3 203
-7 210 -10 16 -5 749 0 909 6 58 3 362 7 675 11 622 6 812 12 980 27 61 6 144
13 185 16 41 3 91 10 110 16 19 5 50 12 68 15 34 4 113 43 144 71 14 12 16 31
13 111 -2 53 -9 131 -15 172 -6 41 -13 103 -17 138 -3 34 -9 64 -13 67 -3 2
-3 32 2 67 11 90 12 317 0 331 -5 7 -12 50 -14 97 -3 47 -15 121 -26 165 -11
44 -28 116 -38 160 -9 44 -32 122 -50 173 -19 51 -33 103 -31 114 1 14 -7 27
-25 37 -26 15 -31 14 -140 -42 -62 -31 -161 -93 -221 -137 -104 -77 -109 -80
-150 -74 -189 27 -355 102 -524 235 -100 79 -103 82 -103 121 0 47 -22 87 -98
178 -62 75 -139 143 -194 171 -41 21 -41 21 -82 9z m84 -30 c22 -11 40 -22 40
-24 0 -2 -19 -15 -42 -29 -24 -14 -64 -43 -90 -66 -31 -28 -55 -41 -75 -41
-15 0 -42 -4 -58 -8 -37 -11 -64 -5 -44 10 11 8 10 9 -3 4 -10 -3 -25 -3 -33
0 -11 5 6 22 57 57 40 27 93 65 117 84 51 38 77 41 131 13z m168 -143 c74 -85
100 -129 108 -178 6 -38 5 -41 -11 -32 -10 6 -20 25 -22 44 -2 18 -8 36 -14
40 -6 3 -10 9 -10 13 3 20 -1 26 -14 26 -8 0 -14 5 -12 12 1 7 -5 13 -13 13
-8 1 -14 7 -12 14 3 16 -17 43 -28 36 -8 -5 -37 24 -32 34 1 3 -4 6 -10 6 -7
1 -12 6 -11 13 2 6 -4 9 -12 6 -11 -5 -13 -2 -9 10 3 9 1 17 -5 17 -6 1 -15 3
-21 4 -5 1 -13 3 -17 4 -4 0 2 7 12 15 17 12 23 11 50 -11 16 -14 54 -52 83
-86z m-130 65 c5 2 9 0 9 -4 -3 -14 126 -137 137 -131 6 3 8 3 4 -2 -4 -4 4
-27 17 -50 35 -58 32 -72 -7 -46 -62 41 -204 109 -261 126 -31 9 -57 18 -57
20 0 2 28 27 62 54 44 36 65 47 74 40 6 -5 16 -8 22 -7z m-323 -103 c5 -6 5
-9 -1 -9 -6 0 -31 -14 -56 -30 -35 -23 -53 -29 -72 -24 -26 6 -26 7 26 45 51
38 76 43 103 18z m202 -14 c118 -28 271 -115 485 -277 154 -116 295 -186 463
-228 107 -28 133 -30 263 -29 78 1 146 -1 149 -5 4 -3 -1 -6 -9 -6 -9 0 -78
-20 -154 -44 l-138 -45 -168 92 c-172 94 -598 345 -674 397 -87 61 -255 142
-307 150 -50 7 -50 8 -12 9 22 0 68 -6 102 -14z m46 -63 c61 -32 146 -81 187
-108 41 -28 101 -65 133 -84 43 -24 55 -35 45 -41 -9 -6 -5 -8 12 -7 16 2 24
-2 22 -10 -1 -8 2 -11 8 -7 6 4 66 -26 135 -67 68 -40 198 -113 289 -163 121
-66 161 -92 150 -98 -9 -5 -21 -4 -30 4 -12 10 -13 9 -8 -6 5 -13 3 -16 -12
-13 -10 2 -23 -2 -29 -8 -20 -25 -564 -180 -592 -170 -8 3 -12 2 -8 -3 3 -5
-13 -12 -36 -16 -38 -7 -43 -5 -97 47 -65 60 -291 248 -426 354 -98 77 -230
209 -248 250 -8 17 -8 28 -1 35 15 15 56 1 49 -17 -3 -8 -1 -14 4 -14 6 0 10
4 10 9 0 5 28 -3 62 -16 72 -29 107 -24 122 18 12 34 2 68 -29 101 l-25 27 22
15 c104 65 145 63 291 -12z m-339 -14 c46 -23 66 -51 66 -89 0 -66 -45 -66
-176 1 -54 28 -109 50 -122 50 -35 0 -23 22 26 46 38 18 52 19 114 12 39 -5
80 -14 92 -20z m-192 -71 c15 -24 13 -179 -3 -209 -25 -46 -96 15 -106 90 -5
39 10 105 30 130 13 16 67 8 79 -11z m-124 -74 c-2 -16 -10 -29 -20 -31 -12
-2 -15 2 -11 19 5 19 3 21 -23 16 -16 -3 -40 -8 -54 -13 -15 -4 -22 -3 -17 2
13 14 69 32 100 33 25 1 28 -2 25 -26z m-96 -56 c-28 -29 -32 -40 -32 -85 0
-58 -28 -125 -59 -142 -16 -8 -26 -4 -55 24 -33 31 -36 38 -36 93 0 67 5 74
80 117 30 17 60 26 89 26 l45 0 -32 -33z m382 -119 c-9 -13 -78 -46 -196 -92
-63 -25 -104 -46 -97 -50 8 -3 3 -4 -11 -1 -14 2 -39 0 -55 -5 -27 -9 -27 -9
10 -5 34 4 36 3 16 -6 -14 -5 -45 -7 -70 -5 -29 4 -37 3 -21 -2 20 -6 13 -10
-40 -20 -36 -6 -76 -9 -90 -6 -20 5 -22 4 -10 -6 12 -9 9 -10 -15 -6 -23 5
-27 4 -15 -5 12 -8 9 -9 -15 -5 -16 3 -24 3 -16 -1 8 -3 -14 -18 -55 -35 -78
-34 -129 -45 -118 -25 4 6 3 8 -1 4 -16 -14 -14 -36 3 -30 14 4 14 3 3 -5 -17
-12 -43 -4 -34 11 3 6 1 7 -6 3 -6 -4 -8 -12 -5 -18 4 -6 -1 -8 -14 -4 -14 5
-21 1 -25 -14 -3 -11 -10 -20 -17 -20 -6 0 -8 5 -4 12 4 7 3 8 -5 4 -6 -4 -8
-12 -5 -18 4 -6 -2 -8 -17 -3 -16 4 -20 3 -11 -3 11 -7 10 -11 -4 -16 -10 -4
-21 -1 -27 6 -6 10 -7 9 -4 -3 4 -13 -9 -23 -51 -42 -31 -14 -66 -27 -77 -30
-19 -5 -19 -5 1 -6 11 0 62 19 114 44 51 25 94 44 96 42 2 -2 -40 -25 -94 -51
-87 -41 -104 -46 -143 -41 -35 5 -41 4 -29 -5 12 -9 9 -11 -16 -6 -37 6 -167
-27 -144 -37 8 -3 2 -3 -14 0 -22 5 -27 3 -21 -7 6 -9 4 -11 -4 -5 -7 4 -33 2
-57 -5 -52 -15 -59 -11 -79 46 -8 22 -14 31 -15 21 0 -10 7 -32 16 -48 8 -17
13 -33 10 -36 -3 -3 -12 12 -21 33 -13 33 -14 46 -4 81 12 46 39 78 46 56 3
-7 4 -15 3 -19 -2 -10 79 -44 106 -44 38 0 65 34 62 79 -2 22 -6 37 -10 34 -5
-2 -8 -2 -8 1 0 2 -2 11 -6 19 -6 16 22 29 101 47 28 6 57 13 66 16 22 6 33
-24 17 -44 -9 -11 -10 -14 -1 -9 8 5 18 -4 28 -23 12 -23 22 -30 45 -30 24 0
34 8 55 44 14 25 28 57 31 73 3 15 9 29 14 31 5 2 25 14 45 28 33 22 57 32 42
18 -11 -11 60 -64 86 -64 35 0 60 42 61 104 1 46 4 53 34 74 18 13 48 30 66
37 l34 14 6 -41 c8 -51 64 -111 98 -106 30 4 79 79 80 121 1 17 6 35 12 39 8
5 7 8 -1 8 -7 0 -13 9 -13 20 0 16 7 20 30 20 17 0 45 7 62 16 16 9 27 11 24
6 -3 -6 0 -13 6 -16 9 -4 10 -8 2 -11 -6 -3 -20 -13 -30 -21 -17 -13 -16 -13
12 0 30 15 32 14 53 -15 15 -21 30 -29 51 -29 35 0 49 21 57 89 l5 48 69 -70
c37 -39 66 -74 63 -79z m1842 140 c4 -7 -12 -27 -42 -52 -27 -23 -69 -63 -94
-91 -119 -132 -108 -125 -196 -124 -44 0 -99 4 -124 8 -39 7 -33 9 46 10 101
1 103 2 166 81 87 108 62 92 -43 -29 -34 -40 -37 -41 -97 -41 -34 0 -62 2 -62
5 0 12 224 161 303 200 90 45 130 55 143 33z m-2158 -17 c10 -6 5 -11 -19 -20
-46 -16 -55 -14 -34 9 20 22 33 24 53 11z m2160 -80 c-16 -25 32 -167 55 -163
11 2 19 -10 27 -39 6 -22 9 -47 6 -55 -3 -7 -1 -16 4 -19 6 -4 10 -11 10 -17
0 -5 -11 0 -24 13 -14 14 -20 26 -14 30 5 4 3 9 -7 12 -9 4 -13 3 -10 -3 9
-15 2 -13 -86 30 -46 22 -94 40 -108 40 -39 0 -72 11 -65 21 3 5 10 6 16 3 7
-4 8 -2 4 4 -8 13 76 109 143 164 43 36 46 37 53 18 4 -12 3 -29 -4 -39z m58
-116 c3 -19 2 -35 -3 -35 -12 0 -54 130 -46 144 8 12 39 -59 49 -109z m-1936
31 c-36 -18 -76 -36 -90 -40 -14 -4 11 11 55 33 44 21 85 39 90 40 6 0 -19
-15 -55 -33z m-699 -41 c-3 -68 -23 -115 -49 -115 -22 0 -67 46 -80 80 -21 59
26 103 102 97 30 -2 30 -2 27 -62z m792 32 c-3 -6 -1 -7 5 -3 15 9 144 -93
135 -107 -3 -6 -2 -8 3 -4 5 3 29 -13 54 -35 25 -22 39 -36 31 -32 -9 5 -12 3
-7 -5 4 -6 11 -9 15 -6 11 6 46 -21 46 -36 0 -7 9 -13 19 -15 11 -1 29 -13 40
-25 l21 -22 -30 18 -30 18 19 -22 c11 -12 26 -19 36 -16 9 3 25 -3 35 -15 11
-12 13 -20 6 -20 -7 0 -9 -5 -5 -11 4 -8 9 -7 15 2 6 11 16 6 43 -20 19 -19
32 -39 29 -44 -3 -6 -1 -7 4 -4 6 4 16 0 22 -7 7 -8 8 -17 3 -20 -28 -17 -309
-78 -381 -83 -103 -6 -152 5 -205 48 -60 50 -77 103 -75 229 1 90 -1 105 -15
104 -25 -2 -177 -109 -236 -166 -65 -63 -116 -137 -131 -190 -39 -145 23 -292
152 -363 45 -24 67 -29 149 -33 92 -4 106 -2 266 43 93 26 248 73 344 105 332
110 336 111 356 89 9 -10 20 -17 24 -16 4 1 9 -2 10 -8 3 -16 32 -45 41 -40 4
3 10 1 14 -5 3 -5 1 -10 -5 -10 -6 0 -3 -11 7 -24 12 -16 20 -20 25 -13 10 17
38 -57 50 -131 11 -71 4 -128 -15 -129 -19 -1 -372 -22 -557 -33 -91 -6 -259
-17 -375 -26 -115 -8 -253 -17 -306 -21 l-97 -6 -123 109 c-210 186 -295 276
-333 357 -36 76 -65 181 -71 253 l-4 42 93 56 c123 74 237 119 371 146 176 34
315 82 460 157 28 15 44 18 52 11 7 -6 10 -15 6 -21z m-268 -68 c-22 -10 -47
-18 -55 -18 -8 0 5 9 30 19 58 24 77 24 25 -1z m1953 -36 c18 -4 20 -8 10 -14
-9 -6 -4 -9 15 -9 36 0 110 -38 101 -51 -4 -7 1 -9 15 -4 11 3 21 2 21 -3 0
-5 -30 -21 -67 -34 -155 -58 -288 -110 -451 -176 -247 -101 -1008 -354 -1326
-441 -156 -43 -218 -49 -305 -30 -111 23 -213 133 -226 244 -19 149 72 289
272 421 45 30 83 54 85 54 2 0 3 -44 3 -98 0 -56 6 -113 14 -136 19 -54 74
-112 127 -132 71 -27 235 -15 404 31 74 20 142 34 152 32 10 -3 16 -2 13 3 -3
4 48 22 113 39 339 92 521 147 662 202 68 26 319 106 340 108 3 1 16 -2 28 -6z
m-2724 -9 c10 -4 12 -11 6 -22 -4 -10 -13 -35 -19 -57 -6 -22 -19 -51 -29 -64
-39 -49 -86 5 -80 90 3 36 7 44 28 50 33 9 75 10 94 3z m-347 -107 c-3 -7 1
-24 9 -38 40 -71 -2 -129 -71 -96 -75 36 -84 103 -18 130 48 20 87 22 80 4z
m3265 1 c18 -16 45 -127 54 -227 l7 -73 -56 37 c-32 21 -57 42 -57 48 0 6 -3
8 -6 4 -3 -3 -60 21 -126 54 -66 34 -118 62 -116 64 6 6 263 104 274 105 5 0
17 -6 26 -12z m-2784 -70 c-13 -10 -27 -18 -33 -17 -5 0 -2 6 7 13 10 7 16 15
13 17 -2 3 5 5 16 5 19 0 19 -1 -3 -18z m2550 -76 c51 -27 89 -52 85 -56 -4
-4 -1 -4 7 -1 9 3 50 -16 93 -44 94 -59 119 -81 113 -97 -2 -6 1 -17 7 -23 8
-8 8 -11 -2 -11 -11 0 -11 -3 -1 -15 10 -12 11 -43 6 -128 -10 -167 -14 -184
-45 -196 -14 -5 -42 -12 -61 -15 -48 -8 -368 -33 -520 -41 -69 -4 -177 -13
-240 -21 -183 -23 -167 -29 -172 74 -4 111 -36 184 -114 263 l-56 56 189 63
c196 66 618 229 618 240 0 0 42 -22 93 -48z m-2634 -46 c10 -88 55 -228 90
-282 29 -43 132 -145 376 -373 l45 -42 -53 3 c-28 2 -53 -1 -55 -7 -5 -15
-1163 -20 -1359 -6 -322 23 -631 92 -728 161 -35 25 -35 33 1 170 21 80 50
135 97 188 36 39 42 40 36 7 -2 -14 0 -25 6 -25 6 0 8 5 5 10 -8 13 -8 13 53
-10 29 -11 61 -20 73 -20 11 0 17 -4 14 -10 -4 -6 6 -7 26 -3 21 4 30 2 26 -4
-4 -6 4 -8 21 -6 22 4 24 2 12 -7 -12 -9 -11 -10 6 -5 26 7 385 -21 469 -37
67 -12 303 -123 283 -132 -7 -3 -3 -3 8 -1 12 3 45 7 73 8 28 1 51 6 51 10 0
5 -4 5 -10 2 -5 -3 -10 -2 -10 4 0 5 5 13 11 17 20 12 2 100 -42 199 -24 52
-44 93 -47 91 -2 -3 5 -25 17 -50 26 -61 18 -59 -14 3 -21 42 -22 50 -9 55 20
8 34 -1 34 -20 0 -8 5 -14 10 -14 6 0 8 12 6 26 -5 23 -2 25 19 20 13 -3 26
-2 30 4 3 5 12 7 19 4 8 -3 17 -1 20 5 4 6 13 8 21 4 8 -3 15 -1 15 5 0 5 18
14 40 20 22 5 37 6 34 1 -3 -5 0 -9 5 -9 6 0 11 5 11 11 0 6 9 8 20 4 12 -4
20 -2 20 5 0 7 8 9 19 5 11 -3 22 -1 26 5 3 6 10 8 15 5 5 -3 26 1 46 10 41
17 56 9 47 -26 -3 -10 -1 -19 5 -19 5 0 8 14 6 30 -2 20 3 37 16 50 30 30 37
25 44 -34z m-600 31 c-8 -21 30 -112 96 -230 33 -59 61 -120 62 -135 3 -49
-11 -71 -48 -78 -30 -5 -53 3 -157 54 -149 73 -195 83 -462 102 -201 14 -432
65 -422 93 5 15 250 67 263 56 8 -6 14 -4 18 6 3 8 14 15 24 15 10 0 90 16
177 35 87 20 165 33 173 30 9 -3 18 -1 22 4 5 9 202 58 242 60 11 1 15 -4 12
-12z m2387 -314 c13 -16 12 -17 -3 -4 -10 7 -18 15 -18 17 0 8 8 3 21 -13z
m49 -54 c0 -6 -4 -7 -10 -4 -5 3 -10 11 -10 16 0 6 5 7 10 4 6 -3 10 -11 10
-16z m-3506 -234 c62 -36 136 -60 298 -93 259 -55 501 -72 992 -72 306 0 921
21 1186 40 74 5 167 12 205 15 207 15 557 36 760 45 127 6 264 15 305 20 41 6
217 19 390 31 173 11 345 27 381 34 37 8 73 16 80 17 10 2 15 -10 17 -38 3
-40 2 -41 -38 -53 -22 -6 -40 -16 -40 -21 0 -14 17 -12 51 5 35 19 33 22 48
-95 17 -135 16 -155 -16 -169 -44 -21 -113 -40 -178 -51 -95 -15 -439 -40
-692 -49 -226 -8 -233 -9 -265 -33 l-33 -25 -535 -5 -535 -5 -31 23 c-30 22
-35 22 -415 29 l-384 7 -58 -26 c-54 -25 -66 -26 -215 -25 -254 1 -299 8 -429
67 -125 58 -135 61 -348 98 -82 15 -218 44 -301 64 -232 57 -316 104 -306 170
l4 30 30 -25 c28 -24 58 -33 58 -17 0 4 -18 18 -40 32 -35 21 -40 29 -40 61 0
45 28 81 42 55 5 -9 28 -27 52 -41z m133 -265 c49 -12 95 -23 103 -25 8 -2 56
-12 105 -24 50 -11 144 -29 210 -40 142 -24 228 -48 220 -61 -3 -6 0 -7 8 -4
8 3 47 -11 87 -32 45 -22 98 -40 141 -46 63 -9 69 -13 69 -34 0 -12 -4 -25 -9
-29 -10 -6 -296 17 -361 30 -14 3 -50 7 -80 10 -141 15 -410 85 -410 107 0 5
-4 7 -8 4 -5 -3 -31 6 -60 20 -39 19 -50 29 -46 42 5 13 4 14 -4 3 -24 -34
-202 111 -202 165 0 7 33 -5 75 -26 41 -21 114 -47 162 -60z m4510 -137 c-2
-16 -4 -5 -4 22 0 28 2 40 4 28 2 -13 2 -35 0 -50z m-34 -49 c-29 -21 -33 -17
-33 34 0 41 4 51 23 59 21 10 22 8 25 -34 2 -34 -1 -48 -15 -59z m-44 26 c1
-46 -2 -52 -25 -60 -39 -15 -42 -13 -46 40 -3 46 -1 51 22 59 44 16 47 13 49
-39z m-88 8 c0 -13 2 -31 4 -40 2 -9 -2 -24 -8 -32 -13 -18 -97 -36 -163 -36
l-44 0 0 54 0 54 88 7 c48 3 92 8 97 10 21 7 25 4 26 -17z m-231 -62 l0 -53
-66 -6 c-37 -4 -71 -4 -75 -1 -8 5 -4 68 7 102 2 8 25 12 69 12 l65 0 0 -54z
m-160 -6 c0 -45 -3 -52 -26 -60 -14 -6 -50 -10 -80 -10 l-55 0 2 53 c3 61 9
65 97 66 l62 1 0 -50z m-354 -67 c-4 -11 -23 -13 -78 -11 l-73 3 -3 52 -3 52
78 3 78 3 3 -44 c2 -24 1 -50 -2 -58z m181 55 c-4 -28 -10 -55 -15 -60 -5 -5
-38 -8 -73 -6 l-64 3 -3 44 c-5 69 -2 71 84 71 l77 0 -6 -52z m-354 -10 c-2
-28 -5 -53 -6 -54 -2 -2 -36 -4 -77 -6 -74 -3 -75 -3 -78 23 -3 22 2 27 28 33
18 3 45 17 62 31 16 14 39 25 52 25 20 0 21 -4 19 -52z m-2007 5 c-3 -21 -6
-48 -6 -60 0 -22 -4 -23 -65 -23 -55 0 -65 3 -66 18 0 9 -2 24 -4 33 -2 12 15
23 59 41 86 36 90 35 82 -9z m166 -23 l-4 -60 -69 0 -69 0 0 60 0 60 73 0 72
0 -3 -60z m246 -2 l-3 -63 -55 -3 c-30 -2 -79 -1 -107 3 l-53 6 0 60 0 59 110
0 111 0 -3 -62z m212 3 c0 -68 -4 -71 -102 -71 -84 0 -88 3 -88 71 l0 59 95 0
95 0 0 -59z m173 28 c30 -20 37 -30 37 -57 l0 -33 -92 3 -93 3 -3 59 -3 59 59
-5 c38 -4 72 -14 95 -29z m-1139 -15 c9 -3 16 -18 16 -33 0 -26 -1 -26 -64
-23 -62 4 -64 4 -68 33 -5 29 -4 29 48 29 29 0 59 -3 68 -6z m178 -34 l-4 -31
-67 3 c-64 3 -66 4 -69 31 l-3 27 74 0 74 0 -5 -30z m1208 1 c0 -29 -2 -30
-63 -36 -85 -9 -121 -4 -125 18 -8 42 3 47 98 47 l90 0 0 -29z m208 2 l-3 -28
-90 0 -90 0 -3 28 -3 27 96 0 96 0 -3 -27z m212 3 c0 -26 -29 -36 -104 -36
-65 0 -86 9 -86 36 0 24 2 24 95 24 93 0 95 0 95 -24z m180 -1 c0 -25 -1 -25
-80 -25 -79 0 -80 0 -80 25 0 25 1 25 80 25 79 0 80 0 80 -25z m180 0 c0 -31
-25 -38 -104 -28 -52 7 -60 11 -61 31 -2 21 1 22 82 22 82 0 83 0 83 -25z"/>
<path d="M2975 2120 c-3 -5 -2 -10 4 -10 5 0 13 5 16 10 3 6 2 10 -4 10 -5 0
-13 -4 -16 -10z"/>
<path d="M3033 2123 c9 -2 23 -2 30 0 6 3 -1 5 -18 5 -16 0 -22 -2 -12 -5z"/>
<path d="M2933 2098 c-13 -6 -23 -15 -23 -20 0 -5 11 -1 25 8 37 24 35 30 -2
12z"/>
<path d="M3135 2090 c3 -5 8 -10 11 -10 2 0 4 5 4 10 0 6 -5 10 -11 10 -5 0
-7 -4 -4 -10z"/>
<path d="M2955 2080 c-3 -5 -1 -10 4 -10 6 0 11 5 11 10 0 6 -2 10 -4 10 -3 0
-8 -4 -11 -10z"/>
<path d="M3021 2052 c-12 -23 4 -52 29 -52 25 0 41 30 29 53 -13 22 -46 22
-58 -1z m46 -8 c8 -21 -13 -42 -28 -27 -13 13 -5 43 11 43 6 0 13 -7 17 -16z"/>
<path d="M3130 2060 c0 -5 5 -10 11 -10 5 0 7 5 4 10 -3 6 -8 10 -11 10 -2 0
-4 -4 -4 -10z"/>
<path d="M3140 1955 c-19 -23 -8 -50 22 -53 19 -2 28 2 33 18 12 39 -29 66
-55 35z m43 -11 c9 -9 -4 -34 -18 -34 -14 0 -27 25 -18 34 4 3 12 6 18 6 6 0
14 -3 18 -6z"/>
<path d="M3304 1955 c11 -8 24 -15 30 -15 5 0 1 7 -10 15 -10 8 -23 14 -29 14
-5 0 -1 -6 9 -14z"/>
<path d="M2740 1921 c0 -6 4 -13 10 -16 6 -3 7 1 4 9 -7 18 -14 21 -14 7z"/>
<path d="M2810 1891 c0 -6 4 -13 10 -16 6 -3 7 1 4 9 -7 18 -14 21 -14 7z"/>
<path d="M2790 1860 c0 -5 5 -10 11 -10 5 0 7 5 4 10 -3 6 -8 10 -11 10 -2 0
-4 -4 -4 -10z"/>
<path d="M2975 1850 c-14 -16 -15 -22 -5 -35 28 -34 77 -4 53 33 -15 24 -28
24 -48 2z m40 -20 c0 -22 -29 -18 -33 3 -3 14 1 18 15 15 10 -2 18 -10 18 -18z"/>
<path d="M2860 1836 c0 -2 7 -7 16 -10 8 -3 12 -2 9 4 -6 10 -25 14 -25 6z"/>
<path d="M3610 1810 c0 -5 5 -10 11 -10 5 0 7 5 4 10 -3 6 -8 10 -11 10 -2 0
-4 -4 -4 -10z"/>
<path d="M2914 1791 c20 -22 26 -25 26 -13 0 4 -10 13 -22 21 -23 14 -23 14
-4 -8z"/>
<path d="M3580 1790 c0 -5 5 -10 11 -10 5 0 7 5 4 10 -3 6 -8 10 -11 10 -2 0
-4 -4 -4 -10z"/>
<path d="M3675 1770 c3 -5 11 -10 16 -10 6 0 7 5 4 10 -3 6 -11 10 -16 10 -6
0 -7 -4 -4 -10z"/>
<path d="M2900 1760 c0 -5 5 -10 11 -10 5 0 7 5 4 10 -3 6 -8 10 -11 10 -2 0
-4 -4 -4 -10z"/>
<path d="M3645 1750 c3 -5 11 -10 16 -10 6 0 7 5 4 10 -3 6 -11 10 -16 10 -6
0 -7 -4 -4 -10z"/>
<path d="M2980 1742 c0 -4 10 -13 23 -21 22 -14 22 -14 3 8 -20 22 -26 25 -26
13z"/>
<path d="M2920 1736 c0 -2 12 -12 28 -21 l27 -18 -19 21 c-17 20 -36 29 -36
18z"/>
<path d="M3780 1710 c0 -5 5 -10 11 -10 5 0 7 5 4 10 -3 6 -8 10 -11 10 -2 0
-4 -4 -4 -10z"/>
<path d="M3054 1681 c20 -22 26 -25 26 -13 0 4 -10 13 -22 21 -23 14 -23 14
-4 -8z"/>
<path d="M3810 1690 c0 -5 5 -10 11 -10 5 0 7 5 4 10 -3 6 -8 10 -11 10 -2 0
-4 -4 -4 -10z"/>
<path d="M3007 1669 c12 -12 25 -20 28 -17 3 3 -7 13 -22 23 l-28 17 22 -23z"/>
<path d="M3775 1670 c3 -5 8 -10 11 -10 2 0 4 5 4 10 0 6 -5 10 -11 10 -5 0
-7 -4 -4 -10z"/>
<path d="M3805 1650 c3 -5 11 -10 16 -10 6 0 7 5 4 10 -3 6 -11 10 -16 10 -6
0 -7 -4 -4 -10z"/>
<path d="M3905 1630 c3 -5 8 -10 11 -10 2 0 4 5 4 10 0 6 -5 10 -11 10 -5 0
-7 -4 -4 -10z"/>
<path d="M3070 1616 c0 -2 12 -12 28 -21 l27 -18 -19 21 c-17 20 -36 29 -36
18z"/>
<path d="M3935 1610 c3 -5 11 -10 16 -10 6 0 7 5 4 10 -3 6 -11 10 -16 10 -6
0 -7 -4 -4 -10z"/>
<path d="M3905 1590 c3 -5 8 -10 11 -10 2 0 4 5 4 10 0 6 -5 10 -11 10 -5 0
-7 -4 -4 -10z"/>
<path d="M3160 1546 c0 -2 19 -15 43 -30 l42 -27 -35 31 c-30 27 -50 37 -50
26z"/>
<path d="M3284 1491 c20 -22 26 -25 26 -13 0 4 -10 13 -22 21 -23 14 -23 14
-4 -8z"/>
<path d="M3280 1450 c0 -5 5 -10 11 -10 5 0 7 5 4 10 -3 6 -8 10 -11 10 -2 0
-4 -4 -4 -10z"/>
<path d="M3341 1403 c0 -5 14 -19 32 -32 l32 -25 -29 32 c-31 33 -36 37 -35
25z"/>
<path d="M3415 1330 c3 -5 8 -10 11 -10 2 0 4 5 4 10 0 6 -5 10 -11 10 -5 0
-7 -4 -4 -10z"/>
<path d="M2475 1820 c-28 -7 -28 -8 -5 -9 14 0 32 4 40 9 17 11 8 11 -35 0z"/>
<path d="M2745 1730 c-3 -5 -2 -10 4 -10 5 0 13 5 16 10 3 6 2 10 -4 10 -5 0
-13 -4 -16 -10z"/>
<path d="M2127 1690 c-3 -11 -3 -20 -1 -20 2 0 8 9 14 20 6 11 7 20 2 20 -6 0
-12 -9 -15 -20z"/>
<path d="M2165 1700 c-3 -6 1 -7 9 -4 18 7 21 14 7 14 -6 0 -13 -4 -16 -10z"/>
<path d="M2565 1650 c-3 -6 1 -7 9 -4 18 7 21 14 7 14 -6 0 -13 -4 -16 -10z"/>
<path d="M2488 1623 c7 -3 16 -2 19 1 4 3 -2 6 -13 5 -11 0 -14 -3 -6 -6z"/>
<path d="M2438 1613 c7 -3 16 -2 19 1 4 3 -2 6 -13 5 -11 0 -14 -3 -6 -6z"/>
<path d="M2350 1599 c0 -5 5 -7 10 -4 6 3 10 8 10 11 0 2 -4 4 -10 4 -5 0 -10
-5 -10 -11z"/>
<path d="M1919 1578 c-6 -21 -5 -37 2 -32 5 3 6 10 3 16 -4 6 2 8 17 3 19 -5
21 -4 9 4 -14 10 -29 14 -31 9z"/>
<path d="M2305 1570 c-14 -7 -8 -8 20 -3 22 3 42 7 44 9 9 8 -45 2 -64 -6z"/>
<path d="M1875 1530 c-3 -6 1 -7 9 -4 18 7 21 14 7 14 -6 0 -13 -4 -16 -10z"/>
<path d="M2121 1519 c7 -4 4 -9 -6 -13 -9 -3 -22 -3 -27 1 -7 4 -8 1 -3 -7 5
-9 2 -10 -13 -6 -11 4 -23 3 -26 -3 -13 -20 22 -16 77 9 57 26 57 26 23 26
-20 0 -31 -3 -25 -7z"/>
<path d="M1668 1493 c7 -3 16 -2 19 1 4 3 -2 6 -13 5 -11 0 -14 -3 -6 -6z"/>
<path d="M1618 1483 c7 -3 16 -2 19 1 4 3 -2 6 -13 5 -11 0 -14 -3 -6 -6z"/>
<path d="M1550 1470 c-18 -12 -2 -12 25 0 13 6 15 9 5 9 -8 0 -22 -4 -30 -9z"/>
<path d="M1648 1463 c7 -3 16 -2 19 1 4 3 -2 6 -13 5 -11 0 -14 -3 -6 -6z"/>
<path d="M1560 1450 c-9 -6 -10 -10 -3 -10 6 0 15 5 18 10 8 12 4 12 -15 0z"/>
<path d="M1345 1359 c-4 -6 -5 -12 -2 -15 2 -3 7 2 10 11 7 17 1 20 -8 4z"/>
<path d="M1768 1343 c7 -3 16 -2 19 1 4 3 -2 6 -13 5 -11 0 -14 -3 -6 -6z"/>
<path d="M1705 1330 c-13 -6 -15 -9 -5 -9 8 0 22 4 30 9 18 12 2 12 -25 0z"/>
<path d="M1341 1314 c0 -11 3 -14 6 -6 3 7 2 16 -1 19 -3 4 -6 -2 -5 -13z"/>
<path d="M1360 1321 c0 -6 4 -13 10 -16 6 -3 7 1 4 9 -7 18 -14 21 -14 7z"/>
<path d="M1648 1313 c7 -3 16 -2 19 1 4 3 -2 6 -13 5 -11 0 -14 -3 -6 -6z"/>
<path d="M1381 1274 c0 -11 3 -14 6 -6 3 7 2 16 -1 19 -3 4 -6 -2 -5 -13z"/>
<path d="M1395 1244 l-30 -13 30 6 c32 6 41 11 34 17 -2 2 -17 -2 -34 -10z"/>
<path d="M4505 1640 c3 -5 11 -10 16 -10 6 0 7 5 4 10 -3 6 -11 10 -16 10 -6
0 -7 -4 -4 -10z"/>
<path d="M4590 1622 c0 -4 11 -12 25 -19 14 -6 25 -8 25 -4 0 4 -11 13 -25 19
-14 6 -25 8 -25 4z"/>
<path d="M4651 1586 c2 -2 15 -9 29 -16 23 -12 24 -12 11 3 -7 10 -20 17 -29
17 -8 0 -13 -2 -11 -4z"/>
<path d="M2960 1630 c0 -5 5 -10 11 -10 5 0 7 5 4 10 -3 6 -8 10 -11 10 -2 0
-4 -4 -4 -10z"/>
<path d="M3059 1547 c26 -28 31 -32 31 -19 0 4 -13 16 -28 26 l-27 19 24 -26z"/>
<path d="M3736 897 c3 -10 9 -15 12 -12 3 3 0 11 -7 18 -10 9 -11 8 -5 -6z"/>
<path d="M3761 804 c0 -11 3 -14 6 -6 3 7 2 16 -1 19 -3 4 -6 -2 -5 -13z"/>
<path d="M3760 766 c0 -9 5 -16 10 -16 6 0 10 4 10 9 0 6 -4 13 -10 16 -5 3
-10 -1 -10 -9z"/>
<path d="M3760 720 c0 -5 5 -10 11 -10 5 0 7 5 4 10 -3 6 -8 10 -11 10 -2 0
-4 -4 -4 -10z"/>
<path d="M4530 1560 c0 -5 7 -7 15 -4 8 4 15 8 15 10 0 2 -7 4 -15 4 -8 0 -15
-4 -15 -10z"/>
<path d="M4375 1520 c-3 -5 -1 -10 4 -10 6 0 11 5 11 10 0 6 -2 10 -4 10 -3 0
-8 -4 -11 -10z"/>
<path d="M4665 1510 c-3 -5 -1 -10 4 -10 6 0 11 5 11 10 0 6 -2 10 -4 10 -3 0
-8 -4 -11 -10z"/>
<path d="M4620 1489 c0 -5 5 -7 10 -4 6 3 10 8 10 11 0 2 -4 4 -10 4 -5 0 -10
-5 -10 -11z"/>
<path d="M4585 1480 c-3 -5 -1 -10 4 -10 6 0 11 5 11 10 0 6 -2 10 -4 10 -3 0
-8 -4 -11 -10z"/>
<path d="M2625 1470 c-3 -5 -1 -10 4 -10 6 0 11 5 11 10 0 6 -2 10 -4 10 -3 0
-8 -4 -11 -10z"/>
<path d="M4548 1463 c7 -3 16 -2 19 1 4 3 -2 6 -13 5 -11 0 -14 -3 -6 -6z"/>
<path d="M4180 1450 c-9 -6 -10 -10 -3 -10 6 0 15 5 18 10 8 12 4 12 -15 0z"/>
<path d="M4505 1450 c-3 -6 1 -7 9 -4 18 7 21 14 7 14 -6 0 -13 -4 -16 -10z"/>
<path d="M4470 1440 c-9 -6 -10 -10 -3 -10 6 0 15 5 18 10 8 12 4 12 -15 0z"/>
<path d="M2671 1424 c0 -11 3 -14 6 -6 3 7 2 16 -1 19 -3 4 -6 -2 -5 -13z"/>
<path d="M4138 1433 c7 -3 16 -2 19 1 4 3 -2 6 -13 5 -11 0 -14 -3 -6 -6z"/>
<path d="M2524 1389 c-19 -22 -19 -22 4 -8 12 8 22 17 22 21 0 12 -6 9 -26
-13z"/>
<path d="M2678 1355 c2 -19 7 -35 11 -35 4 0 5 16 3 35 -2 19 -7 35 -11 35 -4
0 -5 -16 -3 -35z"/>
<path d="M3948 1373 c7 -3 16 -2 19 1 4 3 -2 6 -13 5 -11 0 -14 -3 -6 -6z"/>
<path d="M2480 1349 c0 -5 5 -7 10 -4 6 3 10 8 10 11 0 2 -4 4 -10 4 -5 0 -10
-5 -10 -11z"/>
<path d="M3870 1349 c0 -5 5 -7 10 -4 6 3 10 8 10 11 0 2 -4 4 -10 4 -5 0 -10
-5 -10 -11z"/>
<path d="M4235 1345 c-25 -12 -26 -14 -5 -9 14 4 29 10 35 15 12 12 5 11 -30
-6z"/>
<path d="M3755 1320 c-3 -5 -1 -10 4 -10 6 0 11 5 11 10 0 6 -2 10 -4 10 -3 0
-8 -4 -11 -10z"/>
<path d="M4180 1319 c0 -5 5 -7 10 -4 6 3 10 8 10 11 0 2 -4 4 -10 4 -5 0 -10
-5 -10 -11z"/>
<path d="M3715 1310 c-3 -5 -1 -10 4 -10 6 0 11 5 11 10 0 6 -2 10 -4 10 -3 0
-8 -4 -11 -10z"/>
<path d="M2437 1303 c-4 -3 -7 -11 -7 -17 0 -6 5 -5 12 2 6 6 9 14 7 17 -3 3
-9 2 -12 -2z"/>
<path d="M4105 1290 c-3 -6 1 -7 9 -4 18 7 21 14 7 14 -6 0 -13 -4 -16 -10z"/>
<path d="M3605 1280 c-13 -5 -14 -9 -5 -9 8 0 24 4 35 9 13 5 14 9 5 9 -8 0
-24 -4 -35 -9z"/>
<path d="M2710 1260 c0 -5 5 -10 11 -10 5 0 7 5 4 10 -3 6 -8 10 -11 10 -2 0
-4 -4 -4 -10z"/>
<path d="M2396 1223 c-6 -14 -5 -15 5 -6 7 7 10 15 7 18 -3 3 -9 -2 -12 -12z"/>
<path d="M3437 1233 c-3 -4 7 -17 22 -27 l26 -20 -20 25 c-11 13 -21 25 -21
27 -1 2 -4 0 -7 -5z"/>
<path d="M3395 1220 c-3 -5 -1 -10 4 -10 6 0 11 5 11 10 0 6 -2 10 -4 10 -3 0
-8 -4 -11 -10z"/>
<path d="M3908 1223 c7 -3 16 -2 19 1 4 3 -2 6 -13 5 -11 0 -14 -3 -6 -6z"/>
<path d="M3320 1200 c-9 -6 -10 -10 -3 -10 6 0 15 5 18 10 8 12 4 12 -15 0z"/>
<path d="M2391 1174 c0 -11 3 -14 6 -6 3 7 2 16 -1 19 -3 4 -6 -2 -5 -13z"/>
<path d="M2802 1175 c9 -10 21 -16 28 -13 7 2 -1 10 -16 17 -27 12 -28 11 -12
-4z"/>
<path d="M2908 1143 c7 -3 16 -2 19 1 4 3 -2 6 -13 5 -11 0 -14 -3 -6 -6z"/>
<path d="M3060 1140 c-13 -8 -12 -10 3 -10 9 0 17 5 17 10 0 12 -1 12 -20 0z"/>
<path d="M3108 1143 c7 -3 16 -2 19 1 4 3 -2 6 -13 5 -11 0 -14 -3 -6 -6z"/>
<path d="M3008 1133 c7 -3 16 -2 19 1 4 3 -2 6 -13 5 -11 0 -14 -3 -6 -6z"/>
<path d="M3554 1111 c20 -22 26 -25 26 -13 0 4 -10 13 -22 21 -23 14 -23 14
-4 -8z"/>
<path d="M3528 1093 c7 -3 16 -2 19 1 4 3 -2 6 -13 5 -11 0 -14 -3 -6 -6z"/>
<path d="M2400 1039 c0 -8 7 -24 15 -35 19 -25 19 -14 0 22 -8 16 -15 22 -15
13z"/>
<path d="M3338 1033 c7 -3 16 -2 19 1 4 3 -2 6 -13 5 -11 0 -14 -3 -6 -6z"/>
<path d="M3265 1010 c-3 -5 -2 -10 4 -10 5 0 13 5 16 10 3 6 2 10 -4 10 -5 0
-13 -4 -16 -10z"/>
<path d="M3228 993 c7 -3 16 -2 19 1 4 3 -2 6 -13 5 -11 0 -14 -3 -6 -6z"/>
<path d="M3150 969 c0 -5 5 -7 10 -4 6 3 10 8 10 11 0 2 -4 4 -10 4 -5 0 -10
-5 -10 -11z"/>
<path d="M2465 940 c3 -5 8 -10 11 -10 2 0 4 5 4 10 0 6 -5 10 -11 10 -5 0 -7
-4 -4 -10z"/>
<path d="M3015 930 c-13 -6 -15 -9 -5 -9 8 0 22 4 30 9 18 12 2 12 -25 0z"/>
<path d="M2960 909 c0 -5 5 -7 10 -4 6 3 10 8 10 11 0 2 -4 4 -10 4 -5 0 -10
-5 -10 -11z"/>
<path d="M2550 886 c0 -2 7 -7 16 -10 8 -3 12 -2 9 4 -6 10 -25 14 -25 6z"/>
<path d="M2640 866 c0 -2 7 -7 16 -10 8 -3 12 -2 9 4 -6 10 -25 14 -25 6z"/>
<path d="M2750 859 c0 -5 5 -7 10 -4 6 3 10 8 10 11 0 2 -4 4 -10 4 -5 0 -10
-5 -10 -11z"/>
<path d="M2798 863 c7 -3 16 -2 19 1 4 3 -2 6 -13 5 -11 0 -14 -3 -6 -6z"/>
<path d="M4710 1380 c-9 -6 -10 -10 -3 -10 6 0 15 5 18 10 8 12 4 12 -15 0z"/>
<path d="M4758 1383 c7 -3 16 -2 19 1 4 3 -2 6 -13 5 -11 0 -14 -3 -6 -6z"/>
<path d="M4660 1369 c0 -5 5 -7 10 -4 6 3 10 8 10 11 0 2 -4 4 -10 4 -5 0 -10
-5 -10 -11z"/>
<path d="M4390 1346 c0 -2 7 -7 16 -10 8 -3 12 -2 9 4 -6 10 -25 14 -25 6z"/>
<path d="M4470 1346 c0 -3 14 -12 30 -21 17 -9 30 -13 30 -11 0 3 -13 12 -30
21 -16 9 -30 13 -30 11z"/>
<path d="M4460 1316 c0 -2 7 -7 16 -10 8 -3 12 -2 9 4 -6 10 -25 14 -25 6z"/>
<path d="M4570 1260 c0 -5 5 -10 11 -10 5 0 7 5 4 10 -3 6 -8 10 -11 10 -2 0
-4 -4 -4 -10z"/>
<path d="M4607 1239 c7 -7 15 -10 18 -7 3 3 -2 9 -12 12 -14 6 -15 5 -6 -5z"/>
<path d="M4670 1238 c21 -19 70 -48 70 -40 0 5 -12 15 -27 23 -36 17 -49 23
-43 17z"/>
<path d="M4640 1220 c0 -5 5 -10 11 -10 5 0 7 5 4 10 -3 6 -8 10 -11 10 -2 0
-4 -4 -4 -10z"/>
<path d="M4721 1171 c13 -11 26 -17 29 -14 6 6 -30 33 -43 33 -5 0 1 -9 14
-19z"/>
<path d="M4790 1120 c0 -5 5 -10 11 -10 5 0 7 5 4 10 -3 6 -8 10 -11 10 -2 0
-4 -4 -4 -10z"/>
<path d="M3735 1067 c10 -15 20 -25 23 -22 3 3 -5 16 -17 28 l-23 22 17 -28z"/>
<path d="M3706 1058 c10 -14 21 -24 23 -22 3 3 -6 15 -18 27 l-24 22 19 -27z"/>
<path d="M3735 1010 c3 -5 8 -10 11 -10 2 0 4 5 4 10 0 6 -5 10 -11 10 -5 0
-7 -4 -4 -10z"/>
<path d="M3800 961 c0 -5 5 -13 10 -16 6 -3 10 -2 10 4 0 5 -4 13 -10 16 -5 3
-10 2 -10 -4z"/>
<path d="M3775 950 c3 -5 8 -10 11 -10 2 0 4 5 4 10 0 6 -5 10 -11 10 -5 0 -7
-4 -4 -10z"/>
<path d="M3790 920 c0 -5 5 -10 11 -10 5 0 7 5 4 10 -3 6 -8 10 -11 10 -2 0
-4 -4 -4 -10z"/>
<path d="M3805 880 c3 -5 8 -10 11 -10 2 0 4 5 4 10 0 6 -5 10 -11 10 -5 0 -7
-4 -4 -10z"/>
<path d="M3836 877 c3 -10 9 -15 12 -12 3 3 0 11 -7 18 -10 9 -11 8 -5 -6z"/>
<path d="M3850 801 c0 -6 4 -13 10 -16 6 -3 7 1 4 9 -7 18 -14 21 -14 7z"/>
<path d="M3831 754 c0 -11 3 -14 6 -6 3 7 2 16 -1 19 -3 4 -6 -2 -5 -13z"/>
<path d="M3861 744 c0 -11 3 -14 6 -6 3 7 2 16 -1 19 -3 4 -6 -2 -5 -13z"/>
<path d="M3831 704 c0 -11 3 -14 6 -6 3 7 2 16 -1 19 -3 4 -6 -2 -5 -13z"/>
<path d="M3861 694 c0 -11 3 -14 6 -6 3 7 2 16 -1 19 -3 4 -6 -2 -5 -13z"/>
<path d="M1850 1270 c0 -5 5 -10 11 -10 5 0 7 5 4 10 -3 6 -8 10 -11 10 -2 0
-4 -4 -4 -10z"/>
<path d="M1775 1260 c-3 -6 1 -7 9 -4 18 7 21 14 7 14 -6 0 -13 -4 -16 -10z"/>
<path d="M1735 1250 c-3 -6 1 -7 9 -4 18 7 21 14 7 14 -6 0 -13 -4 -16 -10z"/>
<path d="M1645 1230 c-3 -5 -2 -10 4 -10 5 0 13 5 16 10 3 6 2 10 -4 10 -5 0
-13 -4 -16 -10z"/>
<path d="M1560 1210 c0 -5 7 -7 15 -4 8 4 15 8 15 10 0 2 -7 4 -15 4 -8 0 -15
-4 -15 -10z"/>
<path d="M1525 1200 c-3 -5 -1 -10 4 -10 6 0 11 5 11 10 0 6 -2 10 -4 10 -3 0
-8 -4 -11 -10z"/>
<path d="M1430 1187 c0 -10 8 -17 18 -17 9 0 13 4 7 8 -5 4 -13 11 -17 16 -5
5 -8 2 -8 -7z"/>
<path d="M1870 1190 c0 -5 5 -10 11 -10 5 0 7 5 4 10 -3 6 -8 10 -11 10 -2 0
-4 -4 -4 -10z"/>
<path d="M1421 1134 c0 -11 3 -14 6 -6 3 7 2 16 -1 19 -3 4 -6 -2 -5 -13z"/>
<path d="M1430 1100 c0 -5 5 -10 11 -10 5 0 7 5 4 10 -3 6 -8 10 -11 10 -2 0
-4 -4 -4 -10z"/>
<path d="M1930 1041 c0 -5 5 -13 10 -16 6 -3 10 -2 10 4 0 5 -4 13 -10 16 -5
3 -10 2 -10 -4z"/>
<path d="M398 1033 c7 -3 16 -2 19 1 4 3 -2 6 -13 5 -11 0 -14 -3 -6 -6z"/>
<path d="M445 1020 c3 -5 8 -10 11 -10 2 0 4 5 4 10 0 6 -5 10 -11 10 -5 0 -7
-4 -4 -10z"/>
<path d="M1910 1011 c5 -11 15 -23 21 -27 6 -3 3 5 -6 20 -20 30 -30 35 -15 7z"/>
<path d="M528 1003 c7 -3 16 -2 19 1 4 3 -2 6 -13 5 -11 0 -14 -3 -6 -6z"/>
<path d="M708 1003 c7 -3 16 -2 19 1 4 3 -2 6 -13 5 -11 0 -14 -3 -6 -6z"/>
<path d="M1955 1000 c3 -5 8 -10 11 -10 2 0 4 5 4 10 0 6 -5 10 -11 10 -5 0
-7 -4 -4 -10z"/>
<path d="M758 993 c7 -3 16 -2 19 1 4 3 -2 6 -13 5 -11 0 -14 -3 -6 -6z"/>
<path d="M808 993 c7 -3 16 -2 19 1 4 3 -2 6 -13 5 -11 0 -14 -3 -6 -6z"/>
<path d="M1481 984 c0 -11 3 -14 6 -6 3 7 2 16 -1 19 -3 4 -6 -2 -5 -13z"/>
<path d="M618 983 c7 -3 16 -2 19 1 4 3 -2 6 -13 5 -11 0 -14 -3 -6 -6z"/>
<path d="M660 980 c0 -5 5 -10 10 -10 6 0 10 5 10 10 0 6 -4 10 -10 10 -5 0
-10 -4 -10 -10z"/>
<path d="M908 983 c7 -3 16 -2 19 1 4 3 -2 6 -13 5 -11 0 -14 -3 -6 -6z"/>
<path d="M708 973 c7 -3 16 -2 19 1 4 3 -2 6 -13 5 -11 0 -14 -3 -6 -6z"/>
<path d="M1040 970 c0 -6 7 -10 15 -10 8 0 15 2 15 4 0 2 -7 6 -15 10 -8 3
-15 1 -15 -4z"/>
<path d="M808 963 c7 -3 16 -2 19 1 4 3 -2 6 -13 5 -11 0 -14 -3 -6 -6z"/>
<path d="M858 963 c7 -3 16 -2 19 1 4 3 -2 6 -13 5 -11 0 -14 -3 -6 -6z"/>
<path d="M958 953 c7 -3 16 -2 19 1 4 3 -2 6 -13 5 -11 0 -14 -3 -6 -6z"/>
<path d="M1000 950 c0 -4 13 -10 29 -12 17 -2 28 -1 26 3 -7 10 -55 18 -55 9z"/>
<path d="M1125 940 c3 -5 8 -10 11 -10 2 0 4 5 4 10 0 6 -5 10 -11 10 -5 0 -7
-4 -4 -10z"/>
<path d="M1485 940 c3 -5 8 -10 11 -10 2 0 4 5 4 10 0 6 -5 10 -11 10 -5 0 -7
-4 -4 -10z"/>
<path d="M1995 940 c3 -5 8 -10 11 -10 2 0 4 5 4 10 0 6 -5 10 -11 10 -5 0 -7
-4 -4 -10z"/>
<path d="M1117 909 c7 -7 15 -10 18 -7 3 3 -2 9 -12 12 -14 6 -15 5 -6 -5z"/>
<path d="M1200 905 c14 -8 30 -14 35 -14 6 0 -1 6 -15 14 -14 8 -29 14 -35 14
-5 0 1 -6 15 -14z"/>
<path d="M1480 895 c0 -8 2 -15 4 -15 2 0 6 7 10 15 3 8 1 15 -4 15 -6 0 -10
-7 -10 -15z"/>
<path d="M1260 880 c0 -5 5 -10 11 -10 5 0 7 5 4 10 -3 6 -8 10 -11 10 -2 0
-4 -4 -4 -10z"/>
<path d="M2045 880 c3 -5 8 -10 11 -10 2 0 4 5 4 10 0 6 -5 10 -11 10 -5 0 -7
-4 -4 -10z"/>
<path d="M1225 860 c3 -5 8 -10 11 -10 2 0 4 5 4 10 0 6 -5 10 -11 10 -5 0 -7
-4 -4 -10z"/>
<path d="M1500 850 c-9 -6 -10 -10 -3 -10 6 0 15 5 18 10 8 12 4 12 -15 0z"/>
<path d="M1258 843 c7 -3 16 -2 19 1 4 3 -2 6 -13 5 -11 0 -14 -3 -6 -6z"/>
<path d="M1388 843 c7 -3 16 -2 19 1 4 3 -2 6 -13 5 -11 0 -14 -3 -6 -6z"/>
<path d="M2060 820 c0 -5 5 -10 11 -10 5 0 7 5 4 10 -3 6 -8 10 -11 10 -2 0
-4 -4 -4 -10z"/>
<path d="M1370 810 c0 -6 7 -10 15 -10 8 0 15 2 15 4 0 2 -7 6 -15 10 -8 3
-15 1 -15 -4z"/>
<path d="M2135 790 c10 -11 20 -20 23 -20 3 0 -3 9 -13 20 -10 11 -20 20 -23
20 -3 0 3 -9 13 -20z"/>
<path d="M2160 726 c0 -2 8 -10 18 -17 15 -13 16 -12 3 4 -13 16 -21 21 -21
13z"/>
<path d="M2280 660 c0 -5 5 -10 11 -10 5 0 7 5 4 10 -3 6 -8 10 -11 10 -2 0
-4 -4 -4 -10z"/>
<path d="M2250 640 c0 -5 5 -10 11 -10 5 0 7 5 4 10 -3 6 -8 10 -11 10 -2 0
-4 -4 -4 -10z"/>
<path d="M2321 621 c13 -11 26 -17 28 -15 5 5 -30 33 -43 34 -4 0 2 -9 15 -19z"/>
<path d="M1160 1260 c0 -5 5 -10 10 -10 6 0 10 5 10 10 0 6 -4 10 -10 10 -5 0
-10 -4 -10 -10z"/>
<path d="M1060 1210 c0 -5 5 -10 11 -10 5 0 7 5 4 10 -3 6 -8 10 -11 10 -2 0
-4 -4 -4 -10z"/>
<path d="M1185 1200 c3 -5 8 -10 11 -10 2 0 4 5 4 10 0 6 -5 10 -11 10 -5 0
-7 -4 -4 -10z"/>
<path d="M700 1180 c0 -5 5 -10 10 -10 6 0 10 5 10 10 0 6 -4 10 -10 10 -5 0
-10 -4 -10 -10z"/>
<path d="M490 1130 c0 -5 5 -10 10 -10 6 0 10 5 10 10 0 6 -4 10 -10 10 -5 0
-10 -4 -10 -10z"/>
<path d="M610 1120 c0 -5 5 -10 10 -10 6 0 10 5 10 10 0 6 -4 10 -10 10 -5 0
-10 -4 -10 -10z"/>
<path d="M740 1100 c0 -5 5 -10 10 -10 6 0 10 5 10 10 0 6 -4 10 -10 10 -5 0
-10 -4 -10 -10z"/>
<path d="M900 1099 c0 -5 5 -7 10 -4 6 3 10 8 10 11 0 2 -4 4 -10 4 -5 0 -10
-5 -10 -11z"/>
<path d="M1240 1090 c0 -5 5 -10 10 -10 6 0 10 5 10 10 0 6 -4 10 -10 10 -5 0
-10 -4 -10 -10z"/>
<path d="M4645 633 c-65 -5 -84 -23 -24 -23 60 0 119 11 119 21 0 5 -10 8 -22
7 -13 -1 -45 -3 -73 -5z"/>
<path d="M4428 613 c-32 -8 -20 -26 13 -19 17 3 49 6 70 6 22 0 39 5 39 10 0
10 -88 12 -122 3z"/>
<path d="M4253 603 c-18 -2 -33 -9 -33 -15 0 -7 18 -9 53 -4 28 3 64 6 80 6
15 0 27 5 27 10 0 10 -61 11 -127 3z"/>
<path d="M230 591 c0 -11 84 -41 114 -41 32 0 6 17 -53 34 -64 19 -61 18 -61
7z"/>
<path d="M4110 593 c-75 -5 -90 -23 -19 -23 61 0 99 8 99 21 0 5 -6 8 -12 7
-7 -1 -38 -3 -68 -5z"/>
<path d="M3890 571 c-19 -3 -30 -9 -25 -12 14 -10 155 2 155 12 0 10 -76 10
-130 0z"/>
<path d="M3738 563 c-64 -4 -80 -23 -20 -23 54 0 112 11 112 21 0 5 -8 8 -17
7 -10 -1 -44 -3 -75 -5z"/>
<path d="M3568 553 c-75 -4 -94 -23 -24 -23 56 0 106 10 106 21 0 5 -3 8 -7 7
-5 -1 -38 -3 -75 -5z"/>
<path d="M380 543 c0 -9 84 -33 116 -33 27 0 14 17 -18 23 -18 3 -48 9 -65 13
-19 4 -33 2 -33 -3z"/>
<path d="M3333 533 c-13 -2 -23 -8 -23 -12 0 -11 142 -1 155 10 9 9 -89 10
-132 2z"/>
<path d="M3183 523 c-29 -2 -53 -8 -53 -14 0 -10 72 -12 119 -3 35 7 42 25 9
22 -13 -1 -47 -3 -75 -5z"/>
<path d="M530 511 c0 -6 61 -23 131 -35 4 0 8 3 8 9 1 5 -24 15 -56 21 -72 16
-83 16 -83 5z"/>
<path d="M2983 513 c-24 -2 -43 -9 -43 -15 0 -7 18 -9 53 -4 28 3 64 6 80 6
15 0 27 5 27 10 0 10 -31 10 -117 3z"/>
<path d="M2818 503 c-32 -2 -58 -8 -58 -13 0 -11 72 -13 119 -4 32 7 44 25 14
22 -10 -1 -44 -3 -75 -5z"/>
<path d="M2628 493 c-67 -5 -79 -23 -15 -23 60 0 118 11 111 21 -3 5 -13 8
-22 7 -9 -1 -43 -3 -74 -5z"/>
<path d="M700 482 c0 -14 19 -20 89 -28 39 -4 61 -3 61 3 0 6 -27 14 -61 17
-33 4 -67 10 -75 13 -8 3 -14 1 -14 -5z"/>
<path d="M2395 470 c-8 -12 121 -12 150 0 13 6 -7 9 -62 9 -45 1 -85 -3 -88
-9z"/>
<path d="M870 463 c0 -11 68 -23 126 -23 19 0 34 5 34 10 0 6 -15 10 -34 10
-18 0 -54 3 -80 6 -28 4 -46 3 -46 -3z"/>
<path d="M2210 460 c0 -6 33 -10 80 -10 47 0 80 4 80 10 0 6 -33 10 -80 10
-47 0 -80 -4 -80 -10z"/>
<path d="M1063 445 c5 -13 157 -19 157 -6 0 5 -36 11 -80 13 -50 2 -79 -1 -77
-7z"/>
<path d="M2045 451 c-16 -3 -25 -9 -20 -12 15 -9 155 2 155 12 0 10 -89 10
-135 0z"/>
<path d="M1250 440 c0 -6 33 -10 80 -10 47 0 80 4 80 10 0 6 -33 10 -80 10
-47 0 -80 -4 -80 -10z"/>
<path d="M1450 440 c0 -6 33 -10 80 -10 47 0 80 4 80 10 0 6 -33 10 -80 10
-47 0 -80 -4 -80 -10z"/>
<path d="M1640 440 c0 -6 35 -10 85 -10 50 0 85 4 85 10 0 6 -35 10 -85 10
-50 0 -85 -4 -85 -10z"/>
<path d="M1835 440 c3 -5 40 -10 81 -10 43 0 74 4 74 10 0 6 -34 10 -81 10
-51 0 -78 -4 -74 -10z"/>
</g>
</svg>
